<svg width="592" height="91" viewBox="0 0 592 91" fill="none" xmlns="http://www.w3.org/2000/svg">
<path d="M235.578 1.41168C231.451 2.98624 230.203 3.90926 233.026 3.25772C234.438 2.98624 235.198 3.04054 235.578 3.52919C235.958 3.96356 236.067 7.54704 236.012 13.3566L235.849 22.5325L233.949 23.4555L232.049 24.3785H238.293C243.994 24.3785 244.374 24.2699 242.636 23.6727L240.736 22.9669L240.573 11.5106C240.464 2.82336 240.302 8.23662e-06 239.759 8.23662e-06C239.433 0.0543034 237.533 0.65155 235.578 1.41168Z" fill="white"/>
<path d="M292.37 19.6549C295.628 23.0212 301.329 28.8308 304.967 32.5772L311.591 39.3641L298.234 52.6664L284.932 65.9687L310.016 66.1316C323.807 66.1859 335.209 66.1859 335.318 66.0773C335.48 65.8601 335.698 64.9914 337.272 57.5529C337.707 55.5983 338.249 53.3722 338.467 52.5035C339.118 49.9516 337.326 50.7117 335.752 53.698C332.766 59.1818 330.594 59.7247 311.862 59.7247C304.261 59.7247 298.017 59.6162 298.017 59.4533C298.017 59.3447 303.066 54.2409 309.202 48.2142L320.386 37.1922L310.939 27.4734C305.781 22.1525 301.492 17.5917 301.383 17.3202C301.274 17.0487 306.378 16.8316 313.219 16.8316C326.359 16.8316 327.065 16.9944 329.725 20.0893C330.485 21.0123 331.408 22.7497 331.734 23.8899C332.114 25.0844 332.711 26.0617 333.146 26.0617C333.689 26.0617 333.852 24.7044 333.852 19.8178V13.5739H310.125H286.398L292.37 19.6549Z" fill="white"/>
<path d="M567.32 16.8858C565.366 17.3201 562.977 19.5462 562.977 21.0122C562.977 21.6095 563.52 21.338 564.877 20.1435C567.049 18.2974 568.732 18.026 571.121 19.2748C572.478 19.9806 572.75 20.4693 572.75 22.0981C572.75 24.7586 571.229 26.8218 566.723 30.2967C564.66 31.8712 562.977 33.3915 562.977 33.7173C562.977 33.9888 565.746 34.2059 569.438 34.2059C575.682 34.2059 575.899 34.1516 576.768 32.8486C578.016 30.9482 577.853 30.1881 576.442 31.1654C575.139 32.0884 567.32 32.4142 567.32 31.5998C567.32 31.3283 568.895 29.8623 570.849 28.3421C575.193 24.8129 576.116 23.4555 575.899 20.8493C575.627 17.5916 571.935 15.8542 567.32 16.8858Z" fill="white"/>
<path d="M358.937 39.7441L359.1 55.6526H360.457H361.814V39.907V24.1614L360.294 23.9985L358.828 23.8356L358.937 39.7441Z" fill="white"/>
<path d="M368.708 39.7441L368.871 55.6526H370.228H371.586L371.749 39.7441L371.857 23.8899H370.228H368.6L368.708 39.7441Z" fill="white"/>
<path d="M542.454 39.744L542.617 55.6525L544.137 55.8154L545.603 55.9783V39.9612V23.8898H543.975H542.346L542.454 39.744Z" fill="white"/>
<path d="M552.117 39.9612V55.9783L553.637 55.8154L555.103 55.6525L555.266 39.744L555.375 23.8898H553.746H552.117V39.9612Z" fill="white"/>
<path d="M13.2385 25.4644C8.94913 27.039 6.28867 28.5049 3.95398 30.7853C0.696266 33.9345 -0.226752 36.3235 0.0447241 40.7757C0.20761 44.3048 0.370495 44.5763 2.32512 46.3681C4.49693 48.2684 9.43779 49.9515 12.9127 49.9515C16.1161 49.9515 25.4549 45.8251 25.4549 44.3591C25.4549 43.6533 24.369 43.9791 22.3057 45.2279C16.3876 48.9742 8.67766 48.6485 6.34296 44.6306C5.14847 42.6217 5.09418 38.1152 6.18008 35.509C8.29759 30.4053 13.2927 26.8218 18.9937 26.2788C22.7401 25.8988 25.2377 27.1476 26.7037 30.0252C27.9524 32.4685 28.3325 32.1427 29.3098 27.7991C30.07 24.5957 29.8528 24.0527 28.2782 25.0301C27.4638 25.5187 26.6494 25.5187 24.749 25.0843C21.2198 24.1613 16.3876 24.3242 13.2385 25.4644Z" fill="white"/>
<path d="M40.3314 26.496C36.6936 28.885 34.739 31.1654 33.3273 34.9118C32.1328 38.1152 32.4043 43.3275 34.0332 46.4767C35.8249 50.0059 43.2633 56.2498 44.3492 55.1096C44.5121 54.9467 43.4805 53.7522 42.0688 52.5577C38.2682 49.3 36.8565 45.988 36.8565 40.1784C36.8565 33.3372 37.4538 31.7627 41.5259 27.7991C45.5437 23.9985 45.0551 23.4555 40.3314 26.496Z" fill="white"/>
<path d="M106.084 24.9757C105.921 25.2472 106.247 25.5187 106.898 25.5187C108.744 25.5187 108.744 26.8218 106.898 31.8712C103.858 40.3956 101.469 47.2911 101.469 47.7797C101.469 48.3227 105.758 49.4086 108.038 49.4086C110.645 49.4086 113.957 48.3227 116.997 46.368C120.798 43.9791 122.752 41.3186 123.078 38.0609C123.404 34.3145 122.047 33.12 117.486 33.12C114.608 33.12 113.794 33.3372 111.839 34.8032C110.536 35.7262 109.396 36.3777 109.287 36.2148C109.124 36.1063 109.342 35.2918 109.667 34.4231C111.079 31.0025 112.871 25.7359 112.871 25.0843C112.871 24.2699 106.572 24.1613 106.084 24.9757ZM118.789 36.432C119.495 37.7351 119.495 38.1152 118.626 40.0155C117.377 42.7846 114.174 46.3137 111.893 47.4539C110.916 47.9969 109.179 48.3227 108.093 48.2141C106.301 48.0512 106.084 47.8883 105.921 46.4223C105.758 44.0876 108.907 38.6581 111.785 36.4863C114.717 34.2059 117.54 34.2059 118.789 36.432Z" fill="white"/>
<path d="M127.205 25.6817C131.44 28.8851 133.068 31.3827 134.046 35.9978C135.566 43.5448 133.286 49.463 127.042 54.1323C125.359 55.3811 126.987 55.4897 128.996 54.2409C133.231 51.6891 135.077 49.843 136.706 46.5853C140.507 39.0383 138.064 31.7084 129.865 26.0074C127.096 24.1071 124.707 23.7813 127.205 25.6817Z" fill="white"/>
<path d="M410.68 25.8445C404.653 29.8624 402.21 33.7716 402.047 39.6355C401.992 43.6533 403.241 46.9111 406.119 50.2231C407.693 51.9605 412.688 55.3811 413.829 55.3811C414.752 55.3811 414.046 54.4581 411.983 52.9921C407.802 50.0602 405.793 45.065 406.173 38.441C406.445 33.283 408.019 29.9167 411.548 27.2562C412.96 26.116 414.154 25.0844 414.154 24.8129C414.263 24.0528 412.797 24.4329 410.68 25.8445Z" fill="white"/>
<path d="M441.954 27.1476C443.745 28.7222 445.374 30.7311 445.863 31.9256C447.166 35.1833 447.546 40.1242 446.786 44.5221C446.189 47.9427 445.863 48.7028 443.854 50.7117C442.66 52.0148 441.031 53.4265 440.325 53.9151C438.207 55.3268 439.402 55.5983 441.954 54.2409C445.591 52.3949 449.664 47.8884 450.75 44.5764C451.944 40.7757 451.89 38.7125 450.532 35.0747C449.121 31.4369 446.623 28.3964 443.094 26.116C439.13 23.5641 438.533 24.1071 441.954 27.1476Z" fill="white"/>
<path d="M158.587 32.6857L158.75 33.9344H172.866H186.983L187.146 32.6857L187.309 31.4912H172.866H158.424L158.587 32.6857Z" fill="white"/>
<path d="M48.2587 33.6087C46.9013 33.9887 46.9556 33.9887 48.6388 34.3688C50.702 34.8032 50.9192 35.2918 51.7336 43.056C52.0594 46.5309 52.6023 49.1371 52.9281 49.2457C53.3082 49.3543 55.48 46.911 57.8147 43.7619C60.2037 40.6128 62.2669 38.0066 62.4841 38.0066C62.8641 38.0066 62.9727 38.5495 64.0586 45.1735C64.493 47.7797 65.0359 49.4086 65.416 49.4086C66.5562 49.4086 76.3293 39.1468 77.3066 36.8664C78.4468 34.3688 77.7953 33.12 75.352 33.12C73.2888 33.12 72.9087 34.043 74.2661 35.509C74.9177 36.1605 75.4063 37.0293 75.4063 37.4093C75.4063 38.4952 68.2394 45.7165 67.6421 45.1193C67.4249 44.9021 66.9363 42.0787 66.6105 38.8753C66.2304 35.3461 65.7961 33.12 65.416 33.1743C65.0902 33.1743 62.8641 35.4547 60.5294 38.2781C58.1404 41.1014 56.0229 43.2732 55.8058 43.1646C55.5886 43.0017 55.2628 41.4815 55.0999 39.7983C54.8827 38.0609 54.4484 35.8348 54.1769 34.8575C53.6339 33.2829 53.4168 33.12 51.625 33.1743C50.5391 33.2286 49.0189 33.3915 48.2587 33.6087Z" fill="white"/>
<path d="M380.003 33.6631L378.646 34.0974L380.112 34.1517C382.989 34.2603 384.781 37.0837 387.387 45.8252L388.364 49.0286L385.595 51.6348C382.935 54.1866 380.98 54.9468 380.274 53.7523C379.786 52.9379 378.048 53.1007 377.288 54.0238C376.365 55.164 377.505 56.467 379.46 56.467C384.835 56.467 400.146 38.7125 398.735 34.206C398.246 32.6858 394.663 32.6315 394.663 34.1517C394.663 34.6947 395.206 35.5091 395.857 35.9435C396.997 36.7036 396.997 36.9208 396.346 38.3325C395.314 40.6671 391.948 45.0651 391.242 45.0651C390.862 45.0651 390.265 43.8163 389.939 42.3503C389.559 40.83 388.636 38.1153 387.821 36.3778L386.356 33.1201L383.858 33.1744C382.501 33.2287 380.763 33.4459 380.003 33.6631Z" fill="white"/>
<path d="M420.344 33.5002C419.639 33.6088 419.096 33.9888 419.096 34.2603C419.096 34.5861 419.856 34.6404 420.887 34.4775C422.082 34.2603 422.896 34.3689 423.276 34.8575C423.765 35.4548 425.231 39.7441 425.34 40.7757C425.34 40.9929 424.145 42.4046 422.733 43.9791C420.181 46.7482 419.964 46.8568 417.412 46.7482C415.078 46.6939 414.752 46.8025 414.752 47.7798C414.752 49.1372 416.978 49.7344 419.041 48.92C419.856 48.5399 421.647 47.1825 422.951 45.8252C424.254 44.5221 425.448 43.4362 425.665 43.4362C425.828 43.4362 426.534 44.685 427.131 46.1509C427.783 47.6712 428.652 49.0286 429.14 49.1915C430.443 49.7344 432.561 48.9743 434.461 47.2911C436.633 45.3365 436.09 44.5221 433.755 46.2595C432.072 47.5083 432.018 47.5083 431.258 46.4224C430.823 45.8252 430.063 44.0877 429.629 42.5132C428.706 39.3097 428.977 38.3867 431.529 36.2149C432.887 35.0747 433.538 34.9118 435.384 35.129C437.339 35.4005 437.556 35.2919 437.556 34.2603C437.556 33.283 437.23 33.1201 435.493 33.1201C433.918 33.1201 432.887 33.5545 431.203 35.0204C429.955 36.052 428.76 36.9208 428.489 36.9208C428.217 36.9208 427.783 36.1063 427.511 35.129C427.023 33.5002 426.805 33.3916 424.254 33.3373C422.788 33.283 420.996 33.3373 420.344 33.5002Z" fill="white"/>
<path d="M520.898 34.3145C516.392 36.5949 512.537 41.5901 512.483 45.065C512.428 49.9515 519.27 50.7659 524.645 46.5309L526.762 44.8478L526.382 46.368C525.948 48.1598 526.762 49.4086 528.5 49.4086C529.749 49.4086 534.744 46.368 534.744 45.5536C534.744 44.7935 534.255 44.9564 532.735 46.1509C531.215 47.3454 529.857 47.5625 529.857 46.6938C529.857 46.368 530.237 45.2278 530.672 44.1419C531.106 43.1103 531.486 41.8072 531.486 41.3186C531.486 40.8299 531.866 39.744 532.3 38.8753C532.735 38.0609 533.115 37.0836 533.115 36.7035C533.115 36.3777 533.495 35.4547 533.875 34.586C534.689 33.12 534.689 33.12 532.898 33.12C531.975 33.12 530.889 33.3915 530.563 33.7173C530.129 34.1516 529.857 34.1516 529.64 33.7173C528.988 32.6857 523.287 33.0657 520.898 34.3145ZM528.663 34.3145C531.54 37.1922 524.699 47.2368 519.813 47.2368C516.663 47.2368 516.012 45.1735 517.912 41.0471C520.41 35.8348 526.382 32.0341 528.663 34.3145Z" fill="white"/>
<path d="M158.479 39.6355C158.479 40.6671 158.859 40.7214 172.867 40.7214C186.875 40.7214 187.255 40.6671 187.255 39.6355C187.255 38.6039 186.875 38.5496 172.867 38.5496C158.859 38.5496 158.479 38.6039 158.479 39.6355Z" fill="white"/>
<path d="M469.047 39.6355C469.047 40.6671 469.427 40.7214 482.621 40.7214C495.814 40.7214 496.194 40.6671 496.194 39.6355C496.194 38.6039 495.814 38.5496 482.621 38.5496C469.427 38.5496 469.047 38.6039 469.047 39.6355Z" fill="white"/>
<path d="M210.058 40.4499C210.058 41.1557 211.85 41.2643 223.415 41.2643C233.84 41.2643 236.717 41.1014 236.554 40.5584C236.337 40.0698 233.08 39.8526 223.198 39.744C211.741 39.6354 210.058 39.744 210.058 40.4499Z" fill="white"/>
<path d="M244.808 40.4499C245.405 41.1557 246.98 41.2643 255.178 41.1557C268.589 40.9386 268.1 39.9612 254.527 39.7441C245.188 39.6355 244.211 39.6898 244.808 40.4499Z" fill="white"/>
<path d="M82.8999 45.445C81.8683 45.7165 81.1081 47.454 81.6511 48.3227C81.814 48.5942 82.7913 48.8656 83.8229 48.8656C86.592 48.8656 86.7548 49.8972 84.3659 51.9605C82.5741 53.4807 82.4655 53.7522 83.4428 53.7522C85.0174 53.7522 88.438 50.223 88.438 48.6485C88.438 46.5309 85.3975 44.7392 82.8999 45.445Z" fill="white"/>
<path d="M586.813 46.0422C585.293 47.291 585.727 48.7027 587.736 49.1914C590.668 49.9515 592.514 46.911 589.853 45.7165C588.116 44.902 588.279 44.902 586.813 46.0422Z" fill="white"/>
<path d="M158.479 46.6939C158.479 47.7255 158.859 47.7798 172.867 47.7798C186.875 47.7798 187.255 47.7255 187.255 46.6939C187.255 45.6623 186.875 45.608 172.867 45.608C158.859 45.608 158.479 45.6623 158.479 46.6939Z" fill="white"/>
<path d="M220.646 50.1144C217.66 51.3089 216.791 52.069 215.76 54.2408C214.402 57.3357 215.108 57.6071 217.443 54.9467C219.506 52.5034 221.732 51.7433 224.99 52.3405C229.768 53.2635 231.234 57.6614 228.139 61.8422C226.782 63.6882 224.99 65.3171 216.791 72.0497L214.674 73.7871L224.447 73.6785L234.166 73.5699L235.415 71.3981C236.066 70.2036 236.5 69.172 236.392 69.0634C236.283 68.9548 235.523 69.3892 234.654 69.9864C233.243 71.0724 232.483 71.1266 226.89 71.0181L220.646 70.8552L224.718 67.5975C229.659 63.6339 232.863 60.4305 233.46 58.7473C234.926 55.001 232.971 51.0374 229.171 49.9515C226.564 49.2457 222.71 49.3 220.646 50.1144Z" fill="white"/>
<path d="M242.798 58.476C240.463 58.6932 239.486 59.7248 241.549 59.7248C242.146 59.7248 242.798 60.0506 242.96 60.4849C243.123 60.865 242.255 63.9055 241.06 67.1632C239.811 70.4752 238.834 73.2986 238.834 73.5158C238.834 73.6786 239.648 73.8415 240.626 73.8415C242.146 73.8415 242.472 73.5701 243.34 71.6697C243.829 70.4752 244.264 69.2807 244.264 69.0093C244.264 68.1405 252.082 60.3763 253.222 60.0506C253.819 59.8877 254.634 59.942 255.068 60.2134C255.72 60.6478 255.665 61.245 254.634 64.177C251.973 71.5611 251.702 72.7556 252.462 73.6243C253.657 75.0903 257.131 74.2759 259.412 71.9955C260.715 70.6924 261.095 70.0409 260.498 70.0409C260.009 70.0409 259.195 70.5295 258.652 71.1268C258.109 71.724 257.186 72.2127 256.589 72.2127C255.394 72.2127 255.34 72.4299 257.783 65.6973C260.226 59.0189 260.009 58.0959 256.208 58.0959C253.819 58.0959 252.353 58.8561 249.259 61.6251C246.218 64.3942 246.001 64.2856 247.25 60.8107C247.684 59.5619 248.064 58.4217 248.064 58.3131C248.064 58.0959 246.707 58.1502 242.798 58.476Z" fill="white"/>
<path d="M308.224 79.651C307.355 79.7596 306.704 80.0854 306.704 80.3569C306.704 80.6283 307.084 80.7369 307.518 80.574C308.713 80.0854 309.799 81.2256 310.179 83.3431C310.504 84.9177 310.287 85.5692 309.038 87.1438C307.79 88.7183 307.138 89.0441 305.509 89.0441C303.392 89.0441 302.577 90.2386 304.26 90.8901C305.455 91.3245 307.301 90.4558 309.093 88.5554C311.102 86.4922 311.427 86.4379 311.862 88.5011C312.513 91.4874 315.391 91.7588 317.78 89.0984C318.974 87.741 318.594 87.6324 316.803 88.7726C315.282 89.8042 314.685 89.2613 313.871 86.1664C313.382 84.3747 313.436 83.9946 314.685 82.4744C315.825 81.117 316.368 80.8998 317.617 81.1713C318.866 81.4428 319.192 81.3342 319.192 80.6283C319.192 80.194 318.812 79.651 318.377 79.4881C317.508 79.1081 313.762 81.2256 313.762 82.04C313.762 82.963 312.622 81.9314 312.133 80.574C311.645 79.271 311.265 79.2167 308.224 79.651Z" fill="white"/>
</svg>
