<svg width="477" height="338" viewBox="0 0 477 338" fill="none" xmlns="http://www.w3.org/2000/svg">
<rect x="13" y="16" width="456" height="280" stroke="#606060" stroke-width="2"/>
<line x1="88" y1="15" x2="88" y2="297" stroke="#606060" stroke-width="2"/>
<line x1="164" y1="15" x2="164" y2="297" stroke="#606060" stroke-width="2"/>
<line x1="316" y1="15" x2="316" y2="297" stroke="#606060" stroke-width="2"/>
<line x1="393" y1="15" x2="393" y2="297" stroke="#606060" stroke-width="2"/>
<line x1="470" y1="157" x2="12" y2="157" stroke="#606060" stroke-width="2"/>
<path d="M232.45 16H239.985L239.643 296H232.014" stroke="white" stroke-width="1.99288"/>
<path d="M470 289.438L470 297L12 296.656L12 286" stroke="white" stroke-width="2"/>
<path d="M232 157L240 157" stroke="white" stroke-width="2"/>
<path d="M393 288L393 296" stroke="white" stroke-width="2"/>
<path d="M316 288L316 296" stroke="white" stroke-width="2"/>
<path d="M164 288L164 296" stroke="white" stroke-width="2"/>
<path d="M88 288L88 296" stroke="white" stroke-width="2"/>
<path d="M196.464 154.608C196.464 158.37 197.938 160.944 200.116 160.944C202.294 160.944 203.768 158.37 203.768 154.608C203.768 150.846 202.294 148.272 200.116 148.272C197.938 148.272 196.464 150.846 196.464 154.608ZM194.836 154.608C194.836 149.548 197.036 146.864 200.116 146.864C203.196 146.864 205.396 149.548 205.396 154.608C205.396 159.668 203.196 162.352 200.116 162.352C197.036 162.352 194.836 159.668 194.836 154.608ZM208.337 162V160.108H210.229V162H208.337ZM214.438 155.224V147.216H222.842V148.8H216.066V153.288C216.924 152.782 217.606 152.496 218.86 152.496C221.544 152.496 223.524 154.432 223.524 157.314C223.524 160.328 221.368 162.352 218.376 162.352C215.516 162.352 213.712 161.032 213.382 158.062H215.076C215.296 159.712 216.374 160.856 218.222 160.856C220.312 160.856 221.896 159.756 221.896 157.512C221.896 155.356 220.752 154.08 218.618 154.08C217.65 154.08 216.528 154.344 215.978 155.224H214.438Z" fill="white"/>
<path d="M218.693 5.216H220.057V20H218.429V7.636L216.493 9.66L215.635 8.714L218.693 5.216Z" fill="white"/>
<path d="M215.239 293.608C215.239 297.37 216.713 299.944 218.891 299.944C221.069 299.944 222.543 297.37 222.543 293.608C222.543 289.846 221.069 287.272 218.891 287.272C216.713 287.272 215.239 289.846 215.239 293.608ZM213.611 293.608C213.611 288.548 215.811 285.864 218.891 285.864C221.971 285.864 224.171 288.548 224.171 293.608C224.171 298.668 221.971 301.352 218.891 301.352C215.811 301.352 213.611 298.668 213.611 293.608Z" fill="white"/>
<path d="M1.22058 322.578V321.258H5.55458V322.578H1.22058ZM23.9954 315.692H22.3674C22.1474 313.976 21.2234 313.272 19.5514 313.272C16.0534 313.272 15.2834 317.232 15.2614 319.828H15.3054C16.0754 318.332 17.5714 317.364 19.1334 317.364C22.3234 317.364 24.1494 319.344 24.1494 322.358C24.1494 325.372 22.3234 327.352 19.1334 327.352C14.6674 327.352 13.6334 324.008 13.6334 320.114C13.6334 315.076 15.4154 311.864 19.7494 311.864C22.1694 311.864 23.7534 313.294 23.9954 315.692ZM15.7454 322.358C15.7454 324.448 16.9994 325.944 19.1334 325.944C21.2674 325.944 22.5214 324.448 22.5214 322.358C22.5214 320.268 21.2674 318.772 19.1334 318.772C16.9994 318.772 15.7454 320.268 15.7454 322.358Z" fill="white"/>
<path d="M76.2206 322.578V321.258H80.5546V322.578H76.2206ZM88.3694 323.128V321.852L95.6954 312.216H97.1254V321.632H98.9074V323.128H97.1254V327H95.4974V323.128H88.3694ZM95.4974 321.632V314.68H95.4534L90.3054 321.632H95.4974Z" fill="white"/>
<path d="M152.221 322.578V321.258H156.555V322.578H152.221ZM174.555 327H165.051C165.249 324.228 167.075 322.776 169.011 321.258C171.145 319.586 173.081 318.464 173.081 316.286C173.081 314.416 171.651 313.36 170.023 313.36C167.493 313.36 166.613 314.592 166.613 317.012H164.985V316.264C164.985 313.338 167.207 311.864 169.957 311.864C172.663 311.864 174.709 313.536 174.709 316.33C174.709 319.388 172.069 320.774 169.803 322.556C168.417 323.656 167.471 324.47 167.141 325.416H174.555V327Z" fill="white"/>
<path d="M239.239 319.608C239.239 323.37 240.713 325.944 242.891 325.944C245.069 325.944 246.543 323.37 246.543 319.608C246.543 315.846 245.069 313.272 242.891 313.272C240.713 313.272 239.239 315.846 239.239 319.608ZM237.611 319.608C237.611 314.548 239.811 311.864 242.891 311.864C245.971 311.864 248.171 314.548 248.171 319.608C248.171 324.668 245.971 327.352 242.891 327.352C239.811 327.352 237.611 324.668 237.611 319.608Z" fill="white"/>
<path d="M320.555 327H311.051C311.249 324.228 313.075 322.776 315.011 321.258C317.145 319.586 319.081 318.464 319.081 316.286C319.081 314.416 317.651 313.36 316.023 313.36C313.493 313.36 312.613 314.592 312.613 317.012H310.985V316.264C310.985 313.338 313.207 311.864 315.957 311.864C318.663 311.864 320.709 313.536 320.709 316.33C320.709 319.388 318.069 320.774 315.803 322.556C314.417 323.656 313.471 324.47 313.141 325.416H320.555V327Z" fill="white"/>
<path d="M387.369 323.128V321.852L394.695 312.216H396.125V321.632H397.907V323.128H396.125V327H394.497V323.128H387.369ZM394.497 321.632V314.68H394.453L389.305 321.632H394.497Z" fill="white"/>
<path d="M475.995 315.692H474.367C474.147 313.976 473.223 313.272 471.551 313.272C468.053 313.272 467.283 317.232 467.261 319.828H467.305C468.075 318.332 469.571 317.364 471.133 317.364C474.323 317.364 476.149 319.344 476.149 322.358C476.149 325.372 474.323 327.352 471.133 327.352C466.667 327.352 465.633 324.008 465.633 320.114C465.633 315.076 467.415 311.864 471.749 311.864C474.169 311.864 475.753 313.294 475.995 315.692ZM467.745 322.358C467.745 324.448 468.999 325.944 471.133 325.944C473.267 325.944 474.521 324.448 474.521 322.358C474.521 320.268 473.267 318.772 471.133 318.772C468.999 318.772 467.745 320.268 467.745 322.358Z" fill="white"/>
<path d="M13 294.91C55.7136 299.194 145.5 292 192.197 234.612C229.614 188.629 283.5 79.1552 303 61C317.5 47.5 357.078 13.3878 468 16.1555" stroke="#606060" stroke-width="2"/>
</svg>
